<svg xmlns="http://www.w3.org/2000/svg" viewBox="0 0 512 512">
  <defs>
    <linearGradient id="g" x1="95" y1="410" x2="420" y2="95" gradientUnits="userSpaceOnUse">
      <stop offset="0" stop-color="#2F7D63"/>
      <stop offset="1" stop-color="#9CCB75"/>
    </linearGradient>
  </defs>

  <rect width="512" height="512" rx="112" fill="#F5FAF7"/>

  <g fill="none" stroke="url(#g)" stroke-linecap="round" stroke-linejoin="round">
    <path d="M132 188h62l24-36h88l24 36h50c31 0 56 25 56 56v118c0 31-25 56-56 56H132c-31 0-56-25-56-56V244c0-31 25-56 56-56Z" stroke-width="22"/>
    <circle cx="256" cy="300" r="76" stroke-width="20"/>
  </g>

  <path d="M256 342c-43-25-68-50-68-82 0-25 19-44 43-44 13 0 25 6 33 17 8-11 20-17 33-17 24 0 43 19 43 44 0 32-25 57-68 82l-8 5-8-5Z" fill="#78B86D"/>

  <circle cx="382" cy="234" r="12" fill="#8EC36F"/>

  <g fill="none" stroke="#78B86D" stroke-width="13" stroke-linecap="round" stroke-linejoin="round">
    <path d="M350 398c31-3 63-19 84-47"/>
    <path d="M386 377c-1-24 8-44 27-57 9 24 5 45-14 63"/>
    <path d="M405 360c20-13 42-15 63-5-13 20-32 29-58 23"/>
    <path d="M373 394c-16-15-23-34-19-56 23 8 36 25 38 49"/>
  </g>
</svg>