<svg xmlns="http://www.w3.org/2000/svg" viewBox="0 0 128 128">
<rect width="128" height="128" rx="28" fill="#F5FAF7"/>
<path d="M28 45h17l6-9h28l6 9h15a12 12 0 0 1 12 12v37a12 12 0 0 1-12 12H28a12 12 0 0 1-12-12V57a12 12 0 0 1 12-12Z" fill="none" stroke="#2F7D63" stroke-width="8" stroke-linejoin="round"/>
<path d="M64 88c-13-8-22-16-22-27a12 12 0 0 1 22-7 12 12 0 0 1 22 7c0 11-9 19-22 27Z" fill="#67B68A"/>
<path d="M94 27c7-7 16-10 22-7-1 8-7 16-17 20M99 40c7 1 13 5 17 11-8 3-17 0-23-7" fill="none" stroke="#67B68A" stroke-width="5" stroke-linecap="round"/>
</svg>