<svg xmlns="http://www.w3.org/2000/svg" viewBox="0 0 260 210" role="img" aria-labelledby="title">
<title id="title">Photo Consent</title>
<defs>
  <linearGradient id="g" x1="42" y1="170" x2="220" y2="45" gradientUnits="userSpaceOnUse">
    <stop offset="0" stop-color="#42A09B"/>
    <stop offset=".55" stop-color="#73B98A"/>
    <stop offset="1" stop-color="#A8CD72"/>
  </linearGradient>
</defs>
<g fill="none" stroke="url(#g)" stroke-linecap="round" stroke-linejoin="round">
  <path d="M58 68h46l15-22h50l15 22h20c18 0 32 14 32 32v52c0 18-14 32-32 32H58c-18 0-32-14-32-32v-52c0-18 14-32 32-32Z" stroke-width="10"/>
  <circle cx="129" cy="123" r="37" stroke-width="9"/>
  <circle cx="199" cy="94" r="6.5" fill="#9BCB75" stroke="none"/>
  <path d="M177 177c20-2 39-13 52-31" stroke-width="7"/>
  <path d="M194 164c-2-15 4-29 16-39 7 17 5 31-7 43" stroke-width="7"/>
  <path d="M210 151c14-9 29-10 43-3-10 14-23 20-42 15" stroke-width="7"/>
  <path d="M183 174c-11-10-16-23-13-38 16 5 25 17 26 32" stroke-width="7"/>
</g>
</svg>