<svg xmlns="http://www.w3.org/2000/svg" viewBox="0 0 320 220" role="img" aria-labelledby="title">
<title id="title">Photo Consent</title>
<defs>
  <linearGradient id="pcg" x1="52" y1="174" x2="268" y2="48" gradientUnits="userSpaceOnUse">
    <stop offset="0" stop-color="#4C9B99"/>
    <stop offset="0.55" stop-color="#78B989"/>
    <stop offset="1" stop-color="#A8C979"/>
  </linearGradient>
</defs>

<g fill="none" stroke="url(#pcg)" stroke-linecap="round" stroke-linejoin="round">
  <path d="M60 78h52l18-24h60l18 24h26c19 0 34 15 34 34v42c0 19-15 34-34 34H60c-19 0-34-15-34-34v-42c0-19 15-34 34-34Z" stroke-width="10"/>
  <circle cx="160" cy="133" r="38" stroke-width="9"/>
  <circle cx="238" cy="100" r="7" fill="#95C477" stroke="none"/>
</g>

<g fill="url(#pcg)">
  <ellipse cx="246" cy="157" rx="10" ry="23" transform="rotate(18 246 157)"/>
  <ellipse cx="264" cy="146" rx="10" ry="23" transform="rotate(-22 264 146)"/>
  <ellipse cx="277" cy="163" rx="10" ry="21" transform="rotate(48 277 163)"/>
</g>

<path d="M228 177c17-1 35-11 48-28" fill="none" stroke="url(#pcg)" stroke-width="7" stroke-linecap="round" stroke-linejoin="round"/>
</svg>
