<svg xmlns="http://www.w3.org/2000/svg" viewBox="0 0 240 180" role="img" aria-labelledby="title">
<title id="title">Photo Consent</title>
<defs>
  <linearGradient id="brandGradient" x1="28" y1="142" x2="207" y2="35" gradientUnits="userSpaceOnUse">
    <stop offset="0" stop-color="#4C9B99"/>
    <stop offset=".55" stop-color="#75B989"/>
    <stop offset="1" stop-color="#A8C979"/>
  </linearGradient>
</defs>
<g fill="none" stroke="url(#brandGradient)" stroke-linecap="round" stroke-linejoin="round">
  <path d="M48 63h43l14-22h50l14 22h24c17 0 31 14 31 31v45c0 17-14 31-31 31H48c-17 0-31-14-31-31V94c0-17 14-31 31-31Z" stroke-width="10"/>
  <circle cx="119" cy="116" r="34" stroke-width="9"/>
  <circle cx="188" cy="83" r="6" fill="#9CC878" stroke="none"/>
  <path d="M166 161c22-3 39-13 51-30" stroke-width="7"/>
  <path d="M184 148c-2-16 4-29 16-38 7 16 5 31-7 42" stroke-width="7"/>
  <path d="M199 136c14-8 29-8 41-2-9 14-23 19-40 14" stroke-width="7"/>
  <path d="M172 158c-11-10-15-23-12-37 15 5 24 17 24 32" stroke-width="7"/>
</g>
</svg>