<svg xmlns="http://www.w3.org/2000/svg" viewBox="0 0 512 512">
<defs><linearGradient id="g" x1="90" y1="400" x2="420" y2="100" gradientUnits="userSpaceOnUse"><stop offset="0" stop-color="#4C9B99"/><stop offset=".56" stop-color="#75B989"/><stop offset="1" stop-color="#A8C979"/></linearGradient></defs>
<rect width="512" height="512" rx="112" fill="#F5FAF7"/>
<g fill="none" stroke="url(#g)" stroke-linecap="round" stroke-linejoin="round">
<path d="M118 166h72l26-38h84l26 38h34c31 0 56 25 56 56v98c0 31-25 56-56 56H118c-31 0-56-25-56-56v-98c0-31 25-56 56-56Z" stroke-width="20"/>
<circle cx="256" cy="270" r="68" stroke-width="20"/>
<circle cx="372" cy="215" r="13" fill="#9CC878" stroke="none"/>
<path d="M335 365c34-3 65-22 86-51" stroke-width="16"/>
</g>
<g fill="url(#g)"><path d="M367 341c-4-34 9-61 34-80 15 34 10 64-16 87-7 6-14 2-18-7Z"/><path d="M398 315c26-22 57-27 85-16-16 33-43 48-78 39-8-2-12-13-7-23Z"/><path d="M344 366c-24-21-35-48-29-78 33 10 53 34 55 68 1 10-16 19-26 10Z"/></g>
</svg>